Coordinates
version=1
nRows=10
nColumns=40
inDegrees=yes

Units are S.I. units (second, meters, Newtons, ...)
Angles are in degrees.

endheader
time	pelvis_tilt	pelvis_list	pelvis_rotation	pelvis_tx	pelvis_ty	pelvis_tz	hip_flexion_r	hip_adduction_r	hip_rotation_r	knee_angle_r	knee_angle_r_beta	ankle_angle_r	subtalar_angle_r	mtp_angle_r	hip_flexion_l	hip_adduction_l	hip_rotation_l	knee_angle_l	knee_angle_l_beta	ankle_angle_l	subtalar_angle_l	mtp_angle_l	lumbar_extension	lumbar_bending	lumbar_rotation	arm_flex_r	arm_add_r	arm_rot_r	elbow_flex_r	pro_sup_r	wrist_flex_r	wrist_dev_r	arm_flex_l	arm_add_l	arm_rot_l	elbow_flex_l	pro_sup_l	wrist_flex_l	wrist_dev_l
      0.00000000	     -3.46133686	      0.81008895	     -1.73622820	     -0.97247093	      0.87248459	     -1.41916589	     -2.73342158	     -3.99615118	     -8.02035820	    -46.28831361	     -0.80788348	    -18.41006374	     -2.94182114	      0.77540161	     32.51616974	      0.60651185	      6.99012551	    -37.31439763	     -0.65125910	      4.01532508	     17.12373343	      3.61941847	     -2.02214940	     -2.85207791	      1.74248481	     -1.93436939	     -9.67155667	     -6.72731941	     51.64085933	     89.95437384	      0.00000000	      0.00000000	     -7.67868690	      6.69328775	     20.80446985	     19.81983036	     89.95437384	      0.00000000	      0.00000000
      0.01000000	     -3.41168282	      1.10126400	     -1.47796820	     -0.96065790	      0.87316158	     -1.42207291	     -1.06266620	     -4.51634491	     -7.50918439	    -49.52170404	     -0.86431679	    -20.47111377	     -4.26253244	      4.70868122	     31.81471891	     -0.20970648	      6.55022243	    -37.85949728	     -0.66077288	      6.15884915	     16.75912349	     13.48980511	     -2.06387123	     -3.15146811	      1.33026837	     -2.03088979	     -9.55279365	     -6.79927181	     50.62282580	     89.95437384	      0.00000000	      0.00000000	     -6.99753846	      6.97256776	     20.44955934	     19.90945184	     89.95437384	      0.00000000	      0.00000000
      0.02000000	     -3.43011603	      1.32651917	     -1.27529013	     -0.94898442	      0.87386757	     -1.42459489	      0.76589814	     -4.95970027	     -7.11609469	    -52.66701463	     -0.91921281	    -22.06977806	     -6.17422419	      5.15126959	     31.05131172	     -0.70659029	      6.65243289	    -38.04305489	     -0.66397657	      6.99136083	     16.63826478	     13.12775698	     -2.07922391	     -3.38277600	      0.98274421	     -2.14829598	     -9.42343414	     -6.85675435	     49.59115083	     89.95437384	      0.00000000	      0.00000000	     -6.30867521	      7.24276855	     20.37813880	     20.11313701	     89.95437384	      0.00000000	      0.00000000
      0.03000000	     -3.42169789	      1.49635337	     -1.10166019	     -0.93754763	      0.87472048	     -1.42693783	      2.62701155	     -5.31388863	     -6.82122651	    -55.68675238	     -0.97191718	    -23.10072575	     -8.98752796	      5.84349080	     30.18400573	     -1.09866399	      6.85217124	    -38.08200007	     -0.66465629	      7.86435687	     16.53473127	     12.81695528	     -2.13978149	     -3.54702115	      0.57446687	     -2.11786391	     -9.30036859	     -6.77763602	     48.38044812	     89.95437384	      0.00000000	      0.00000000	     -5.62840301	      7.49497091	     20.37887665	     20.43389818	     89.95437384	      0.00000000	      0.00000000
      0.04000000	     -3.14274548	      1.66788745	     -0.89677243	     -0.92595515	      0.87611508	     -1.42934357	      4.12021497	     -5.72560707	     -6.76651052	    -58.44053458	     -1.01997975	    -23.20756225	    -11.32688169	      6.26954385	     28.92544291	     -1.46568050	      7.12268911	    -38.02348377	     -0.66363498	      8.92884751	     16.17413276	     12.48253452	     -2.49185901	     -3.69827222	      0.14598335	     -1.98671196	     -9.18749045	     -6.75695674	     46.91931599	     89.95437384	      0.00000000	      0.00000000	     -4.89011537	      7.77506066	     20.30149991	     20.77271625	     89.95437384	      0.00000000	      0.00000000
      0.05000000	     -3.18832045	      1.85859153	     -0.80673726	     -0.91495381	      0.87702420	     -1.43148918	      6.17968388	     -6.12231728	     -6.72700893	    -61.13898751	     -1.06707663	    -23.46608664	    -14.95653669	      7.75003234	     27.99938223	     -1.79729354	      7.47322641	    -37.74400449	     -0.65875715	      9.30432956	     16.00589019	     12.22190066	     -2.53533166	     -3.85909552	     -0.18062558	     -2.00708952	     -9.13429637	     -6.52631121	     45.74364514	     89.95437384	      0.00000000	      0.00000000	     -4.27713070	      8.01894515	     20.40058770	     21.51417908	     89.95437384	      0.00000000	      0.00000000
      0.06000000	     -2.90979927	      1.79438106	     -0.55000832	     -0.90345261	      0.87860991	     -1.43350124	      7.62823247	     -6.20700063	     -6.80215562	    -63.33685196	     -1.10543660	    -22.13539839	    -16.47860560	      8.22220304	     26.63252639	     -1.92006939	      7.53800989	    -37.42087861	     -0.65311754	     10.15846128	     15.59796285	     11.87467699	     -2.88564555	     -3.75413903	     -0.66856864	     -1.87104990	     -9.00327481	     -6.52388829	     44.25836553	     89.95437384	      0.00000000	      0.00000000	     -3.53343648	      8.30444778	     20.37434933	     21.97537606	     89.95437384	      0.00000000	      0.00000000
      0.07000000	     -2.86689139	      1.80358910	     -0.37299212	     -0.89249628	      0.87983007	     -1.43554644	      9.59642070	     -6.38683698	     -6.87631034	    -65.67556105	     -1.14625478	    -18.89849282	    -17.06793739	     20.39404289	     25.55508839	     -2.09823178	      7.65819507	    -37.01813585	     -0.64608835	     10.39015426	     15.58508753	      9.74423294	     -3.03015078	     -3.69814698	     -1.09394700	     -1.78328868	     -8.94929839	     -6.34326932	     42.86703174	     89.95437384	      0.00000000	      0.00000000	     -2.87698787	      8.51583491	     20.66046178	     22.75224722	     89.95437384	      0.00000000	      0.00000000
      0.08000000	     -2.60730650	      1.64214476	     -0.05501158	     -0.88115453	      0.88152293	     -1.43753079	     11.00010059	     -6.26024703	     -6.89745820	    -67.22893906	     -1.17336634	    -16.93674049	    -17.84035002	     20.04429233	     24.19281799	     -2.12968675	      7.63588803	    -36.60605673	     -0.63889622	     11.07071923	     15.14923552	      9.45205039	     -3.36092083	     -3.46534615	     -1.60154551	     -1.73059999	     -8.87616150	     -6.31964813	     41.37320423	     89.95437384	      0.00000000	      0.00000000	     -2.12950191	      8.79063115	     20.66734593	     23.35017990	     89.95437384	      0.00000000	      0.00000000
      0.09000000	     -2.49863529	      1.49588303	      0.28344635	     -0.87013953	      0.88296619	     -1.43943203	     12.59856901	     -6.14423440	     -6.95942735	    -68.58093072	     -1.19696305	    -14.81433438	    -18.10751162	     19.72205777	     22.97964148	     -2.16670857	      7.57864287	    -36.10663649	     -0.63017969	     11.55712236	     14.71183605	      9.13300311	     -3.54755620	     -3.25073704	     -2.13613980	     -1.66063898	     -8.77777456	     -6.34434741	     39.86948943	     89.95437384	      0.00000000	      0.00000000	     -1.42561815	      9.06547948	     20.79640135	     24.09346977	     89.95437384	      0.00000000	      0.00000000
